<svg width="67" height="67" viewBox="0 0 67 67" fill="none" xmlns="http://www.w3.org/2000/svg">
<path fill-rule="evenodd" clip-rule="evenodd" d="M20.6375 7.1227C19.9521 6.78544 19.1229 7.06181 18.7768 7.74289C18.2844 8.71213 18.1143 9.89591 18.0915 11.0308C18.0682 12.191 18.1973 13.4342 18.404 14.6099C18.6111 15.7891 18.9023 16.934 19.2192 17.9058C19.3659 18.3557 19.5255 18.7914 19.6942 19.1875C16.9778 21.7612 15.4448 26.0678 16.7377 30.2484C18.2002 34.9774 23.0799 39.0256 32.5773 40.4636C33.3397 40.5789 34.051 40.0546 34.1663 39.2925C34.2819 38.5301 33.7576 37.8188 32.9952 37.7032C24.0546 36.3496 20.4243 32.7207 19.4047 29.4237C18.3547 26.0283 19.8654 22.4386 22.2686 20.6648C22.8656 20.2241 23.0135 19.3932 22.6051 18.7736C22.43 18.508 22.1588 17.9156 21.8733 17.0402C21.5976 16.1951 21.3382 15.178 21.1535 14.1268C20.9682 13.0721 20.864 12.0166 20.8826 11.0868C20.8876 10.8389 20.9012 10.6083 20.9224 10.3953C21.9079 10.9092 22.934 11.4776 23.904 12.0799C25.4075 13.0134 26.6867 13.974 27.4828 14.8799C27.8992 15.3537 28.5816 15.4894 29.1475 15.2109C31.7571 13.9268 35.084 13.2605 38.2824 13.2605C41.5056 13.2605 44.3908 13.936 46.2037 15.1255C46.5379 15.3447 46.9502 15.4102 47.3358 15.3054C47.7216 15.2005 48.0437 14.9353 48.2207 14.577C48.6051 13.7997 49.6285 12.8739 51.028 11.9089C51.8566 11.3374 52.6734 10.843 53.4194 10.3968C53.4302 10.4653 53.4408 10.5378 53.4506 10.6145C53.5494 11.3909 53.5464 12.3663 53.4732 13.4389C53.342 15.3638 53.0017 17.4068 52.7614 18.8484C52.734 19.0119 52.708 19.1678 52.684 19.3148C52.6388 19.5883 52.6762 19.8691 52.7912 20.1213C54.1463 23.0905 55.0265 26.5107 53.9682 29.5887C52.942 32.5724 49.9161 35.7052 42.3526 37.7353C41.8457 37.8713 41.4579 38.2803 41.349 38.7937C41.2401 39.3073 41.4286 39.8383 41.8364 40.1685C43.9629 41.8891 47.5605 46.1782 50.071 51.1306C50.7019 52.3754 50.4205 53.4714 49.6629 54.2612C48.8606 55.0973 47.4678 55.6218 45.907 55.3454C43.0888 54.8469 39.9105 54.4376 37.0412 54.4376C33.5868 54.4376 29.0794 55.0328 25.25 55.6645C23.7169 55.9177 22.4304 55.3711 21.7334 54.5657C21.0791 53.8092 20.8584 52.7458 21.5634 51.5443C22.9899 49.1133 24.7123 46.9808 26.4604 45.834C26.7816 45.6232 27.0017 45.2893 27.069 44.9113C27.1363 44.533 27.0447 44.1439 26.8159 43.8354C26.3487 43.2053 25.2751 42.085 23.5448 41.4544C21.7676 40.8064 19.4381 40.7277 16.6125 41.9979C15.2661 42.6029 14.157 42.6836 13.2802 42.5046C12.3987 42.3251 11.6548 41.8637 11.0732 41.2277C9.85006 39.8908 9.50406 37.9902 9.97281 36.8052C10.2563 36.0882 9.905 35.2773 9.18813 34.9936C8.47126 34.7103 7.66031 35.0615 7.37678 35.7784C6.44601 38.132 7.20607 41.1364 9.01337 43.1121C9.94696 44.1327 11.1993 44.9295 12.7225 45.2402C14.2504 45.5517 15.9545 45.3544 17.757 44.5439C19.9697 43.5495 21.5453 43.6967 22.5886 44.0772C22.9576 44.2117 23.2775 44.382 23.5484 44.5607C21.8497 46.0576 20.3549 48.0877 19.1556 50.1317C17.8349 52.3824 18.1986 54.7466 19.6222 56.392C21.0032 57.9883 23.2884 58.8177 25.7045 58.4191C29.5124 57.7907 33.8294 57.2293 37.0412 57.2293C39.6774 57.2293 42.6745 57.6087 45.4204 58.0944C47.8438 58.5232 50.1922 57.7418 51.6774 56.1938C53.2072 54.5992 53.7597 52.2327 52.5612 49.8682C50.5023 45.8072 47.7355 42.1124 45.4366 39.7202C51.9213 37.531 55.3107 34.2692 56.608 30.4963C57.9645 26.5519 56.8726 22.4748 55.507 19.3559C55.5098 19.3405 55.5123 19.3249 55.5148 19.3093C55.7535 17.8803 56.1175 15.6995 56.2585 13.6287C56.3369 12.4759 56.3514 11.2965 56.22 10.2622C56.0963 9.29009 55.8121 8.16067 55.0539 7.39371C54.5927 6.9275 53.8696 6.84493 53.3152 7.19523C53.0556 7.3594 52.7147 7.56347 52.3256 7.79661C51.4822 8.30167 50.411 8.94312 49.4429 9.61074C48.4446 10.2993 47.35 11.1457 46.5373 12.1141C44.2172 10.9847 41.2555 10.4688 38.2824 10.4688C35.0937 10.4688 31.722 11.0611 28.8446 12.2811C27.8542 11.3501 26.6211 10.4808 25.3765 9.70814C23.781 8.71752 22.074 7.82952 20.6375 7.1227Z" fill="white"/>
</svg>
