<svg width="157" height="39" viewBox="0 0 157 39" fill="none" xmlns="http://www.w3.org/2000/svg">
<path d="M2.1 14.339V24.125H1.12V14.339H2.1ZM5.29922 17.839C5.51389 17.363 5.84055 16.9943 6.27922 16.733C6.72722 16.4717 7.27322 16.341 7.91722 16.341V17.363H7.65122C6.94189 17.363 6.37255 17.5543 5.94322 17.937C5.51389 18.3197 5.29922 18.959 5.29922 19.855V24.125H4.31922V16.481H5.29922V17.839ZM9.88148 15.039C9.68548 15.039 9.51748 14.969 9.37748 14.829C9.23748 14.689 9.16748 14.5163 9.16748 14.311C9.16748 14.1057 9.23748 13.9377 9.37748 13.807C9.51748 13.667 9.68548 13.597 9.88148 13.597C10.0775 13.597 10.2455 13.667 10.3855 13.807C10.5255 13.9377 10.5955 14.1057 10.5955 14.311C10.5955 14.5163 10.5255 14.689 10.3855 14.829C10.2455 14.969 10.0775 15.039 9.88148 15.039ZM10.3715 16.481V24.125H9.39148V16.481H10.3715ZM12.1427 20.289C12.1427 19.505 12.3014 18.819 12.6187 18.231C12.936 17.6337 13.37 17.1763 13.9207 16.859C14.4807 16.5323 15.1107 16.369 15.8107 16.369C16.4827 16.369 17.0894 16.5323 17.6307 16.859C18.172 17.1857 18.5687 17.6103 18.8207 18.133V13.765H19.8007V24.125H18.8207V22.417C18.5874 22.949 18.2047 23.3877 17.6727 23.733C17.1407 24.069 16.5154 24.237 15.7967 24.237C15.0967 24.237 14.4667 24.0737 13.9067 23.747C13.356 23.4203 12.922 22.9583 12.6047 22.361C12.2967 21.7637 12.1427 21.073 12.1427 20.289ZM18.8207 20.303C18.8207 19.687 18.6947 19.1457 18.4427 18.679C18.1907 18.2123 17.8454 17.853 17.4067 17.601C16.9774 17.349 16.5014 17.223 15.9787 17.223C15.4374 17.223 14.952 17.3443 14.5227 17.587C14.0934 17.8297 13.7527 18.1843 13.5007 18.651C13.258 19.1083 13.1367 19.6543 13.1367 20.289C13.1367 20.9143 13.258 21.465 13.5007 21.941C13.7527 22.4077 14.0934 22.767 14.5227 23.019C14.952 23.2617 15.4374 23.383 15.9787 23.383C16.5014 23.383 16.9774 23.257 17.4067 23.005C17.8454 22.753 18.1907 22.3937 18.4427 21.927C18.6947 21.4603 18.8207 20.919 18.8207 20.303ZM22.528 15.039C22.332 15.039 22.164 14.969 22.024 14.829C21.884 14.689 21.814 14.5163 21.814 14.311C21.814 14.1057 21.884 13.9377 22.024 13.807C22.164 13.667 22.332 13.597 22.528 13.597C22.724 13.597 22.892 13.667 23.032 13.807C23.172 13.9377 23.242 14.1057 23.242 14.311C23.242 14.5163 23.172 14.689 23.032 14.829C22.892 14.969 22.724 15.039 22.528 15.039ZM23.018 16.481V24.125H22.038V16.481H23.018ZM31.8592 16.481V24.125H30.8792V22.781C30.6552 23.257 30.3099 23.621 29.8432 23.873C29.3765 24.125 28.8539 24.251 28.2752 24.251C27.3605 24.251 26.6139 23.971 26.0352 23.411C25.4565 22.8417 25.1672 22.0203 25.1672 20.947V16.481H26.1332V20.835C26.1332 21.6657 26.3385 22.3003 26.7492 22.739C27.1692 23.1777 27.7385 23.397 28.4572 23.397C29.1945 23.397 29.7825 23.1637 30.2212 22.697C30.6599 22.2303 30.8792 21.5443 30.8792 20.639V16.481H31.8592ZM43.1966 16.341C44.0926 16.341 44.8206 16.6257 45.3806 17.195C45.9499 17.755 46.2346 18.5717 46.2346 19.645V24.125H45.2686V19.757C45.2686 18.9263 45.0679 18.2917 44.6666 17.853C44.2652 17.4143 43.7192 17.195 43.0286 17.195C42.3099 17.195 41.7359 17.433 41.3066 17.909C40.8772 18.385 40.6626 19.0757 40.6626 19.981V24.125H39.6966V19.757C39.6966 18.9263 39.4959 18.2917 39.0946 17.853C38.6932 17.4143 38.1426 17.195 37.4426 17.195C36.7239 17.195 36.1499 17.433 35.7206 17.909C35.2912 18.385 35.0766 19.0757 35.0766 19.981V24.125H34.0966V16.481H35.0766V17.797C35.3192 17.321 35.6646 16.9617 36.1126 16.719C36.5606 16.467 37.0599 16.341 37.6106 16.341C38.2732 16.341 38.8519 16.4997 39.3466 16.817C39.8506 17.1343 40.2146 17.601 40.4386 18.217C40.6439 17.6103 40.9939 17.1483 41.4886 16.831C41.9926 16.5043 42.5619 16.341 43.1966 16.341ZM56.111 17.195C55.831 16.551 55.4017 16.047 54.823 15.683C54.2537 15.3097 53.5817 15.123 52.807 15.123C52.079 15.123 51.4257 15.291 50.847 15.627C50.2683 15.963 49.811 16.4437 49.475 17.069C49.139 17.685 48.971 18.4037 48.971 19.225C48.971 20.0463 49.139 20.7697 49.475 21.395C49.811 22.0203 50.2683 22.501 50.847 22.837C51.4257 23.173 52.079 23.341 52.807 23.341C53.4883 23.341 54.0997 23.1963 54.641 22.907C55.1917 22.6083 55.6303 22.1883 55.957 21.647C56.293 21.0963 56.4843 20.457 56.531 19.729H52.415V18.931H57.567V19.645C57.5203 20.5037 57.287 21.283 56.867 21.983C56.447 22.6737 55.8823 23.2197 55.173 23.621C54.473 24.0223 53.6843 24.223 52.807 24.223C51.9017 24.223 51.0803 24.013 50.343 23.593C49.6057 23.1637 49.0223 22.571 48.593 21.815C48.173 21.0497 47.963 20.1863 47.963 19.225C47.963 18.2637 48.173 17.405 48.593 16.649C49.0223 15.8837 49.6057 15.291 50.343 14.871C51.0803 14.4417 51.9017 14.227 52.807 14.227C53.8523 14.227 54.767 14.4883 55.551 15.011C56.335 15.5337 56.9043 16.2617 57.259 17.195H56.111ZM62.7082 24.237C61.9895 24.237 61.3409 24.0783 60.7622 23.761C60.1929 23.4343 59.7402 22.977 59.4042 22.389C59.0775 21.7917 58.9142 21.0963 58.9142 20.303C58.9142 19.5097 59.0822 18.819 59.4182 18.231C59.7542 17.6337 60.2115 17.1763 60.7902 16.859C61.3689 16.5323 62.0175 16.369 62.7362 16.369C63.4549 16.369 64.1035 16.5323 64.6822 16.859C65.2702 17.1763 65.7275 17.6337 66.0542 18.231C66.3902 18.819 66.5582 19.5097 66.5582 20.303C66.5582 21.087 66.3902 21.7777 66.0542 22.375C65.7182 22.9723 65.2562 23.4343 64.6682 23.761C64.0802 24.0783 63.4269 24.237 62.7082 24.237ZM62.7082 23.383C63.2122 23.383 63.6789 23.271 64.1082 23.047C64.5375 22.8137 64.8829 22.4683 65.1442 22.011C65.4149 21.5443 65.5502 20.975 65.5502 20.303C65.5502 19.631 65.4195 19.0663 65.1582 18.609C64.8969 18.1423 64.5515 17.797 64.1222 17.573C63.6929 17.3397 63.2262 17.223 62.7222 17.223C62.2182 17.223 61.7515 17.3397 61.3222 17.573C60.8929 17.797 60.5475 18.1423 60.2862 18.609C60.0342 19.0663 59.9082 19.631 59.9082 20.303C59.9082 20.975 60.0342 21.5443 60.2862 22.011C60.5475 22.4683 60.8882 22.8137 61.3082 23.047C61.7375 23.271 62.2042 23.383 62.7082 23.383Z" fill="#003146"/>
<path d="M82.5613 19.911C82.5613 20.247 82.552 20.5037 82.5333 20.681H76.1913C76.2193 21.2597 76.3593 21.7543 76.6113 22.165C76.8633 22.5757 77.1947 22.8883 77.6053 23.103C78.016 23.3083 78.464 23.411 78.9493 23.411C79.584 23.411 80.116 23.257 80.5453 22.949C80.984 22.641 81.2733 22.2257 81.4133 21.703H82.4493C82.2627 22.4497 81.8613 23.061 81.2453 23.537C80.6387 24.0037 79.8733 24.237 78.9493 24.237C78.2307 24.237 77.5867 24.0783 77.0173 23.761C76.448 23.4343 76 22.977 75.6733 22.389C75.356 21.7917 75.1973 21.0963 75.1973 20.303C75.1973 19.5097 75.356 18.8143 75.6733 18.217C75.9907 17.6197 76.434 17.1623 77.0033 16.845C77.5727 16.5277 78.2213 16.369 78.9493 16.369C79.6773 16.369 80.312 16.5277 80.8533 16.845C81.404 17.1623 81.824 17.5917 82.1133 18.133C82.412 18.665 82.5613 19.2577 82.5613 19.911ZM81.5673 19.883C81.5767 19.3137 81.46 18.8283 81.2173 18.427C80.984 18.0257 80.662 17.7223 80.2513 17.517C79.8407 17.3117 79.3927 17.209 78.9073 17.209C78.1793 17.209 77.5587 17.4423 77.0453 17.909C76.532 18.3757 76.2473 19.0337 76.1913 19.883H81.5673ZM86.9863 24.237C86.109 24.237 85.3903 24.0363 84.8303 23.635C84.2796 23.2243 83.9716 22.669 83.9063 21.969H84.9143C84.961 22.3983 85.1616 22.7483 85.5163 23.019C85.8803 23.2803 86.3656 23.411 86.9723 23.411C87.5043 23.411 87.9196 23.285 88.2183 23.033C88.5263 22.781 88.6803 22.4683 88.6803 22.095C88.6803 21.8337 88.5963 21.619 88.4283 21.451C88.2603 21.283 88.0456 21.1523 87.7843 21.059C87.5323 20.9563 87.187 20.849 86.7483 20.737C86.179 20.5877 85.717 20.4383 85.3623 20.289C85.0076 20.1397 84.7043 19.9203 84.4523 19.631C84.2096 19.3323 84.0883 18.9357 84.0883 18.441C84.0883 18.0677 84.2003 17.7223 84.4243 17.405C84.6483 17.0877 84.9656 16.8357 85.3763 16.649C85.787 16.4623 86.2536 16.369 86.7763 16.369C87.5976 16.369 88.2603 16.579 88.7643 16.999C89.2683 17.4097 89.539 17.979 89.5763 18.707H88.5963C88.5683 18.259 88.391 17.8997 88.0643 17.629C87.747 17.349 87.3083 17.209 86.7483 17.209C86.2536 17.209 85.8523 17.3257 85.5443 17.559C85.2363 17.7923 85.0823 18.0817 85.0823 18.427C85.0823 18.7257 85.171 18.973 85.3483 19.169C85.535 19.3557 85.7636 19.505 86.0343 19.617C86.305 19.7197 86.669 19.8363 87.1263 19.967C87.677 20.1163 88.1156 20.261 88.4423 20.401C88.769 20.541 89.049 20.7463 89.2823 21.017C89.5156 21.2877 89.637 21.647 89.6463 22.095C89.6463 22.5057 89.5343 22.8743 89.3103 23.201C89.0863 23.5183 88.7736 23.7703 88.3723 23.957C87.971 24.1437 87.509 24.237 86.9863 24.237ZM97.217 14.339V15.151H94.501V24.125H93.521V15.151H90.791V14.339H97.217ZM105.68 19.911C105.68 20.247 105.671 20.5037 105.652 20.681H99.3105C99.3385 21.2597 99.4785 21.7543 99.7305 22.165C99.9825 22.5757 100.314 22.8883 100.724 23.103C101.135 23.3083 101.583 23.411 102.068 23.411C102.703 23.411 103.235 23.257 103.664 22.949C104.103 22.641 104.392 22.2257 104.532 21.703H105.568C105.382 22.4497 104.98 23.061 104.364 23.537C103.758 24.0037 102.992 24.237 102.068 24.237C101.35 24.237 100.706 24.0783 100.136 23.761C99.5671 23.4343 99.1191 22.977 98.7925 22.389C98.4751 21.7917 98.3165 21.0963 98.3165 20.303C98.3165 19.5097 98.4751 18.8143 98.7925 18.217C99.1098 17.6197 99.5531 17.1623 100.122 16.845C100.692 16.5277 101.34 16.369 102.068 16.369C102.796 16.369 103.431 16.5277 103.972 16.845C104.523 17.1623 104.943 17.5917 105.232 18.133C105.531 18.665 105.68 19.2577 105.68 19.911ZM104.686 19.883C104.696 19.3137 104.579 18.8283 104.336 18.427C104.103 18.0257 103.781 17.7223 103.37 17.517C102.96 17.3117 102.512 17.209 102.026 17.209C101.298 17.209 100.678 17.4423 100.164 17.909C99.6511 18.3757 99.3665 19.0337 99.3105 19.883H104.686ZM108.453 13.765V24.125H107.473V13.765H108.453ZM117.589 19.911C117.589 20.247 117.579 20.5037 117.561 20.681H111.219C111.247 21.2597 111.387 21.7543 111.639 22.165C111.891 22.5757 112.222 22.8883 112.633 23.103C113.043 23.3083 113.491 23.411 113.977 23.411C114.611 23.411 115.143 23.257 115.573 22.949C116.011 22.641 116.301 22.2257 116.441 21.703H117.477C117.29 22.4497 116.889 23.061 116.273 23.537C115.666 24.0037 114.901 24.237 113.977 24.237C113.258 24.237 112.614 24.0783 112.045 23.761C111.475 23.4343 111.027 22.977 110.701 22.389C110.383 21.7917 110.225 21.0963 110.225 20.303C110.225 19.5097 110.383 18.8143 110.701 18.217C111.018 17.6197 111.461 17.1623 112.031 16.845C112.6 16.5277 113.249 16.369 113.977 16.369C114.705 16.369 115.339 16.5277 115.881 16.845C116.431 17.1623 116.851 17.5917 117.141 18.133C117.439 18.665 117.589 19.2577 117.589 19.911ZM116.595 19.883C116.604 19.3137 116.487 18.8283 116.245 18.427C116.011 18.0257 115.689 17.7223 115.279 17.517C114.868 17.3117 114.42 17.209 113.935 17.209C113.207 17.209 112.586 17.4423 112.073 17.909C111.559 18.3757 111.275 19.0337 111.219 19.883H116.595ZM122.588 16.369C123.306 16.369 123.932 16.537 124.464 16.873C124.996 17.209 125.378 17.6337 125.612 18.147V16.481H126.592V24.321C126.592 25.021 126.438 25.6417 126.13 26.183C125.831 26.7243 125.411 27.1397 124.87 27.429C124.328 27.7277 123.712 27.877 123.022 27.877C122.042 27.877 121.225 27.6437 120.572 27.177C119.928 26.7103 119.526 26.0757 119.368 25.273H120.334C120.502 25.805 120.819 26.2297 121.286 26.547C121.762 26.8643 122.34 27.023 123.022 27.023C123.516 27.023 123.96 26.9157 124.352 26.701C124.744 26.4957 125.052 26.1877 125.276 25.777C125.5 25.3663 125.612 24.881 125.612 24.321V22.431C125.369 22.9537 124.982 23.3877 124.45 23.733C123.927 24.069 123.306 24.237 122.588 24.237C121.888 24.237 121.258 24.0737 120.698 23.747C120.147 23.4203 119.713 22.9583 119.396 22.361C119.088 21.7637 118.934 21.073 118.934 20.289C118.934 19.505 119.088 18.819 119.396 18.231C119.713 17.6337 120.147 17.1763 120.698 16.859C121.258 16.5323 121.888 16.369 122.588 16.369ZM125.612 20.303C125.612 19.687 125.486 19.1457 125.234 18.679C124.982 18.2123 124.636 17.853 124.198 17.601C123.768 17.349 123.292 17.223 122.77 17.223C122.228 17.223 121.743 17.3443 121.314 17.587C120.884 17.8297 120.544 18.1843 120.292 18.651C120.049 19.1083 119.928 19.6543 119.928 20.289C119.928 20.9143 120.049 21.465 120.292 21.941C120.544 22.4077 120.884 22.767 121.314 23.019C121.743 23.2617 122.228 23.383 122.77 23.383C123.292 23.383 123.768 23.257 124.198 23.005C124.636 22.753 124.982 22.3937 125.234 21.927C125.486 21.4603 125.612 20.919 125.612 20.303ZM129.809 17.839C130.024 17.363 130.35 16.9943 130.789 16.733C131.237 16.4717 131.783 16.341 132.427 16.341V17.363H132.161C131.452 17.363 130.882 17.5543 130.453 17.937C130.024 18.3197 129.809 18.959 129.809 19.855V24.125H128.829V16.481H129.809V17.839ZM133.453 20.289C133.453 19.505 133.607 18.819 133.915 18.231C134.233 17.6337 134.667 17.1763 135.217 16.859C135.777 16.5323 136.407 16.369 137.107 16.369C137.835 16.369 138.461 16.537 138.983 16.873C139.515 17.209 139.898 17.6383 140.131 18.161V16.481H141.111V24.125H140.131V22.431C139.889 22.9537 139.501 23.3877 138.969 23.733C138.447 24.069 137.821 24.237 137.093 24.237C136.403 24.237 135.777 24.0737 135.217 23.747C134.667 23.4203 134.233 22.9583 133.915 22.361C133.607 21.7637 133.453 21.073 133.453 20.289ZM140.131 20.303C140.131 19.687 140.005 19.1457 139.753 18.679C139.501 18.2123 139.156 17.853 138.717 17.601C138.288 17.349 137.812 17.223 137.289 17.223C136.748 17.223 136.263 17.3443 135.833 17.587C135.404 17.8297 135.063 18.1843 134.811 18.651C134.569 19.1083 134.447 19.6543 134.447 20.289C134.447 20.9143 134.569 21.465 134.811 21.941C135.063 22.4077 135.404 22.767 135.833 23.019C136.263 23.2617 136.748 23.383 137.289 23.383C137.812 23.383 138.288 23.257 138.717 23.005C139.156 22.753 139.501 22.3937 139.753 21.927C140.005 21.4603 140.131 20.919 140.131 20.303ZM152.448 16.341C153.344 16.341 154.072 16.6257 154.632 17.195C155.202 17.755 155.486 18.5717 155.486 19.645V24.125H154.52V19.757C154.52 18.9263 154.32 18.2917 153.918 17.853C153.517 17.4143 152.971 17.195 152.28 17.195C151.562 17.195 150.988 17.433 150.558 17.909C150.129 18.385 149.914 19.0757 149.914 19.981V24.125H148.948V19.757C148.948 18.9263 148.748 18.2917 148.346 17.853C147.945 17.4143 147.394 17.195 146.694 17.195C145.976 17.195 145.402 17.433 144.972 17.909C144.543 18.385 144.328 19.0757 144.328 19.981V24.125H143.348V16.481H144.328V17.797C144.571 17.321 144.916 16.9617 145.364 16.719C145.812 16.467 146.312 16.341 146.862 16.341C147.525 16.341 148.104 16.4997 148.598 16.817C149.102 17.1343 149.466 17.601 149.69 18.217C149.896 17.6103 150.246 17.1483 150.74 16.831C151.244 16.5043 151.814 16.341 152.448 16.341Z" fill="#003146"/>
<path d="M71.9169 26.125C71.9169 21.375 72.6622 16.3333 74.1527 11C75.0222 8 75.4569 5.8125 75.4569 4.4375C75.3741 1.52083 73.8629 0.0416667 70.9233 0C67.9837 0.25 66.4311 1.75 66.2654 4.5C66.2654 5.83333 66.7623 8.25 67.7559 11.75C69.1222 16.6667 69.8054 21.4583 69.8054 26.125H71.9169ZM75.3327 34.0625C75.3327 32.3125 74.546 31 72.9727 30.125C72.3103 29.7917 71.6271 29.625 70.9233 29.625C69.1844 29.625 67.9009 30.4167 67.0728 32C66.7416 32.6667 66.576 33.3542 66.576 34.0625C66.576 35.8542 67.3626 37.1458 68.9359 37.9375C69.557 38.2708 70.2194 38.4375 70.9233 38.4375C72.7036 38.4375 74.0078 37.6875 74.8359 36.1875C75.1671 35.5208 75.3327 34.8125 75.3327 34.0625Z" fill="url(#paint0_linear)"/>
<defs>
<linearGradient id="paint0_linear" x1="63.595" y1="38.125" x2="82.658" y2="4.22808" gradientUnits="userSpaceOnUse">
<stop stop-color="#62D97C"/>
<stop offset="1" stop-color="#61A7C6"/>
</linearGradient>
</defs>
</svg>
