<svg width="58" height="58" viewBox="0 0 58 58" fill="none" xmlns="http://www.w3.org/2000/svg">
<path d="M46.4663 7.69385H11.5337C5.17384 7.69385 0 12.8843 0 19.2631V38.7357C0 45.1157 5.17384 50.3049 11.5337 50.3049H46.4663C52.8262 50.3049 58 45.1145 58 38.7357V19.2631C58 12.8843 52.8262 7.69385 46.4663 7.69385ZM55.6327 38.7369C55.6327 43.8113 51.5206 47.9387 46.4663 47.9387H11.5337C6.47943 47.9387 2.36735 43.8101 2.36735 38.7369V19.2631C2.36735 14.1898 6.47943 10.0612 11.5337 10.0612H46.4663C51.5206 10.0612 55.6327 14.1898 55.6327 19.2631V38.7369Z" fill="white"/>
<path d="M39.4874 28.5714L23.0876 18.9658C22.723 18.7528 22.2697 18.7492 21.9015 18.9599C21.5334 19.1706 21.3062 19.5624 21.3062 19.9874V39.1972C21.3062 39.6209 21.5334 40.0139 21.9004 40.2246C22.0826 40.3288 22.2862 40.3809 22.4898 40.3809C22.697 40.3809 22.9029 40.3264 23.0876 40.2187L39.4874 30.6156C39.8496 30.4037 40.0733 30.0143 40.0733 29.594C40.0733 29.1738 39.8508 28.7832 39.4874 28.5714ZM23.6735 37.1317V22.0517L36.5471 29.5929L23.6735 37.1317Z" fill="white"/>
</svg>
