<svg width="62" height="54" viewBox="0 0 62 54" fill="none" xmlns="http://www.w3.org/2000/svg">
<path fill-rule="evenodd" clip-rule="evenodd" d="M50.6119 52.6834L60.964 2.99227C61.2305 1.71084 59.9689 0.641794 58.746 1.11371L1.0612 23.3208C-0.36251 23.8681 -0.35031 25.8797 1.07747 26.4134L15.1331 31.6483L20.5735 49.1085C20.9217 50.2261 22.292 50.6396 23.2012 49.8975L31.0362 43.524C31.8575 42.8558 33.0274 42.8227 33.8852 43.4444L48.0168 53.6829C48.9895 54.3882 50.3681 53.8566 50.6119 52.6834ZM19.6971 28.8617L47.1671 11.9781C47.6605 11.6757 48.1686 12.3418 47.7441 12.7341L25.0738 33.7638C24.2767 34.5037 23.763 35.4949 23.6171 36.5702L22.8452 42.2812C22.7424 43.0436 21.6696 43.119 21.4583 42.3811L18.4883 31.9668C18.1487 30.7789 18.6442 29.51 19.6971 28.8617Z" fill="#61A7C6"/>
</svg>
