<svg width="58" height="58" viewBox="0 0 58 58" fill="none" xmlns="http://www.w3.org/2000/svg">
<path d="M40.7033 0H17.2968C7.79931 0 0.0725098 7.72669 0.0725098 17.2243V40.7758C0.0725098 50.2733 7.79931 58 17.2968 58H40.7033C50.2007 58 57.9275 50.2733 57.9275 40.7758V17.2243C57.9274 7.72669 50.2007 0 40.7033 0ZM55.6167 40.7757C55.6167 48.9991 48.9266 55.6892 40.7033 55.6892H17.2968C9.07338 55.6892 2.38333 48.9991 2.38333 40.7758V17.2243C2.38333 9.00087 9.07338 2.31082 17.2968 2.31082H40.7033C48.9266 2.31082 55.6167 9.00087 55.6167 17.2243V40.7757Z" fill="white"/>
<path d="M40.7033 6.60376H17.2968C11.4404 6.60376 6.67603 11.368 6.67603 17.2244V40.7761C6.67603 46.6324 11.4404 51.3968 17.2968 51.3968H40.7033C46.5596 51.3968 51.324 46.6324 51.324 40.7761V17.2244C51.324 11.3681 46.5596 6.60376 40.7033 6.60376ZM49.0133 40.7758C49.0133 45.358 45.2854 49.0858 40.7033 49.0858H17.2968C12.7146 49.0858 8.98674 45.358 8.98674 40.7758V17.2243C8.98674 12.6422 12.7146 8.91436 17.2968 8.91436V8.91447H40.7033C45.2854 8.91447 49.0133 12.6423 49.0133 17.2244V40.7758Z" fill="white"/>
<path d="M29 14.0671C20.766 14.0671 14.0671 20.766 14.0671 29.0001C14.0671 37.2342 20.7659 43.9329 29 43.9329C37.2341 43.9329 43.9328 37.2342 43.9328 29.0001C43.9328 20.766 37.2339 14.0671 29 14.0671ZM29 41.6221C22.0402 41.6221 16.378 35.9599 16.378 29.0001C16.378 22.0402 22.0402 16.378 29 16.378C35.9599 16.378 41.622 22.0402 41.622 29.0001C41.622 35.9599 35.9598 41.6221 29 41.6221Z" fill="white"/>
<path d="M28.9999 20.5085C24.3177 20.5085 20.5084 24.3179 20.5084 29C20.5084 33.6821 24.3177 37.4914 28.9999 37.4914C33.6821 37.4914 37.4913 33.6821 37.4913 29C37.4913 24.3179 33.682 20.5085 28.9999 20.5085ZM28.9999 35.1807C25.5918 35.1807 22.8191 32.4081 22.8191 29C22.8191 25.5919 25.5918 22.8193 28.9999 22.8193C32.4079 22.8193 35.1806 25.5918 35.1806 29C35.1806 32.4081 32.4079 35.1807 28.9999 35.1807Z" fill="white"/>
<path d="M43.1019 11.3103C41.1235 11.3103 39.5139 12.9198 39.5139 14.8983C39.5139 16.8767 41.1234 18.4861 43.1019 18.4861C45.0801 18.4861 46.6897 16.8767 46.6897 14.8983C46.6897 12.9198 45.0801 11.3103 43.1019 11.3103ZM43.1019 16.1753C42.3977 16.1753 41.8247 15.6024 41.8247 14.8983C41.8247 14.194 42.3977 13.6211 43.1019 13.6211C43.806 13.6211 44.3789 14.1941 44.3789 14.8983C44.379 15.6024 43.8061 16.1753 43.1019 16.1753Z" fill="white"/>
<path d="M27.1514 52.4543H16.2909C15.6527 52.4543 15.1355 52.9716 15.1355 53.6097C15.1355 54.2478 15.6527 54.7651 16.2909 54.7651H27.1514C27.7895 54.7651 28.3067 54.2478 28.3067 53.6097C28.3067 52.9716 27.7895 52.4543 27.1514 52.4543Z" fill="white"/>
<path d="M31.5418 52.4543H30.8485C30.2105 52.4543 29.6931 52.9716 29.6931 53.6097C29.6931 54.2478 30.2105 54.7651 30.8485 54.7651H31.5418C32.1799 54.7651 32.6971 54.2478 32.6971 53.6097C32.6971 52.9716 32.1798 52.4543 31.5418 52.4543Z" fill="white"/>
</svg>
