<svg width="308" height="1147" viewBox="0 0 308 1147" fill="none" xmlns="http://www.w3.org/2000/svg">
<path d="M185.615 796.578H187.115V795.078C187.115 642.496 211.17 480.516 259.3 309.13C287.396 212.657 301.5 142.138 301.5 97.6927V97.6713L301.499 97.6499C300.155 50.515 287.203 14.7465 262.417 -9.39646C237.634 -33.5364 201.253 -45.8267 153.528 -46.4999L153.454 -46.5009L153.38 -46.4947C105.67 -42.4568 69.0109 -28.3068 43.6006 -3.87643C18.1765 20.5672 4.19473 55.1276 1.50274 99.6118L1.5 99.6571V99.7024C1.5 142.816 17.6171 220.718 49.7182 333.24C93.8331 491.221 115.885 645.166 115.885 795.078V796.578H117.385H185.615ZM220.456 875.39L220.429 875.375L220.401 875.361C198.799 864.544 176.495 859.124 153.507 859.124C125.179 859.124 100.483 865.544 79.4754 878.439C58.4702 891.332 41.2409 910.645 27.76 936.297L27.7528 936.311L27.7458 936.325C16.9448 957.959 11.5338 980.295 11.5338 1003.32C11.5338 1032.35 17.9403 1057.42 30.8186 1078.46C43.6941 1099.5 62.9818 1116.42 88.5988 1129.25C108.879 1140.08 130.523 1145.5 153.507 1145.5C182.483 1145.5 207.667 1139.42 229.003 1127.21C250.343 1115 267.751 1096.7 281.244 1072.38L281.26 1072.35L281.274 1072.32C292.082 1050.67 297.486 1027.67 297.486 1003.32C297.486 974.947 291.077 950.052 278.207 928.685C265.339 907.319 246.064 889.563 220.456 875.39Z" stroke="#003146" stroke-opacity="0.5" stroke-width="3"/>
<path d="M193.615 783.078C193.615 630.337 217.696 468.216 265.858 296.717C293.953 200.249 308 129.907 308 85.6927C305.324 -8.09593 256.493 -55.6602 161.507 -57C66.5203 -48.961 16.3514 -0.72683 11 87.7024C11 130.577 27.0541 208.288 59.1622 320.834C103.311 478.935 125.385 633.016 125.385 783.078H193.615ZM303.986 991.317C303.986 935.044 278.568 892.839 227.73 864.702C206.324 853.984 184.25 848.624 161.507 848.624C105.318 848.624 63.8446 874.081 37.0878 924.995C26.3851 946.432 21.0338 968.54 21.0338 991.317C21.0338 1048.93 46.4527 1090.47 97.2905 1115.92C117.358 1126.64 138.764 1132 161.507 1132C219.034 1132 261.176 1107.88 287.932 1059.65C298.635 1038.21 303.986 1015.43 303.986 991.317Z" fill="url(#paint0_linear)"/>
<defs>
<linearGradient id="paint0_linear" x1="-75.2905" y1="1168.95" x2="536.153" y2="76.4216" gradientUnits="userSpaceOnUse">
<stop stop-color="#62D97C"/>
<stop offset="1" stop-color="#61A7C6"/>
</linearGradient>
</defs>
</svg>
