<svg width="308" height="1204" viewBox="0 0 308 1204" fill="none" xmlns="http://www.w3.org/2000/svg">
<path d="M185.615 853.578H187.115V852.078C187.115 699.496 211.17 537.516 259.3 366.13C287.396 269.657 301.5 199.138 301.5 154.693V154.671L301.499 154.65C300.155 107.515 287.203 71.7465 262.417 47.6035C237.634 23.4636 201.253 11.1733 153.528 10.5001L153.454 10.4991L153.38 10.5053C105.67 14.5432 69.0109 28.6932 43.6006 53.1236C18.1765 77.5672 4.19473 112.128 1.50274 156.612L1.5 156.657V156.702C1.5 199.816 17.6171 277.718 49.7182 390.24C93.8331 548.221 115.885 702.166 115.885 852.078V853.578H117.385H185.615ZM220.456 932.39L220.429 932.375L220.401 932.361C198.799 921.544 176.495 916.124 153.507 916.124C125.179 916.124 100.483 922.544 79.4754 935.439C58.4702 948.332 41.2409 967.645 27.76 993.297L27.7528 993.311L27.7458 993.325C16.9448 1014.96 11.5338 1037.3 11.5338 1060.32C11.5338 1089.35 17.9403 1114.42 30.8186 1135.46C43.6941 1156.5 62.9818 1173.42 88.5988 1186.25C108.879 1197.08 130.523 1202.5 153.507 1202.5C182.483 1202.5 207.667 1196.42 229.003 1184.21C250.343 1172 267.751 1153.7 281.244 1129.38L281.26 1129.35L281.274 1129.32C292.082 1107.67 297.486 1084.67 297.486 1060.32C297.486 1031.95 291.077 1007.05 278.207 985.685C265.339 964.319 246.064 946.563 220.456 932.39Z" stroke="#003146" stroke-opacity="0.5" stroke-width="3"/>
<path d="M193.615 840.078C193.615 687.337 217.696 525.216 265.858 353.717C293.953 257.249 308 186.907 308 142.693C305.324 48.9041 256.493 1.33984 161.507 0C66.5203 8.03902 16.3514 56.2732 11 144.702C11 187.577 27.0541 265.288 59.1622 377.834C103.311 535.935 125.385 690.016 125.385 840.078H193.615ZM303.986 1048.32C303.986 992.044 278.568 949.839 227.73 921.702C206.324 910.984 184.25 905.624 161.507 905.624C105.318 905.624 63.8446 931.081 37.0878 981.995C26.3851 1003.43 21.0338 1025.54 21.0338 1048.32C21.0338 1105.93 46.4527 1147.47 97.2905 1172.92C117.358 1183.64 138.764 1189 161.507 1189C219.034 1189 261.176 1164.88 287.932 1116.65C298.635 1095.21 303.986 1072.43 303.986 1048.32Z" fill="url(#paint0_linear)"/>
<defs>
<linearGradient id="paint0_linear" x1="-75.2905" y1="1225.95" x2="536.153" y2="133.422" gradientUnits="userSpaceOnUse">
<stop stop-color="#62D97C"/>
<stop offset="1" stop-color="#61A7C6"/>
</linearGradient>
</defs>
</svg>
